<?xml version="1.0" encoding="UTF-8"?>
<svg width="32px" height="32px" viewBox="0 0 32 32" version="1.1" xmlns="http://www.w3.org/2000/svg"
     xmlns:xlink="http://www.w3.org/1999/xlink">
  <!-- Generator: sketchtool 51.1 (57501) - http://www.bohemiancoding.com/sketch -->
  <title>271DCB60-AAA7-4489-A600-12F9D3E09B2B-388-000060C11FFDA823</title>
  <g id="Deposits" stroke="none" stroke-width="1" fill="#006037" fill-rule="evenodd">
    <path d="M15.793043,0.923912036 L15.793043,15.2830449 C15.793043,15.8219936 15.3695834,16.0144753 14.98462,15.6295119 L0.20202743,0.808423031 C-0.182935919,0.423459683 0.00954575539,0 0.548494443,0 L14.9461237,0 C15.4850724,0 15.793043,0.269474344 15.793043,0.923912036 Z M15.793043,17.0923727 L15.793043,31.4515056 C15.793043,31.9904542 15.3695834,32.1829359 14.98462,31.7979726 L0.20202743,16.9768837 C-0.182935919,16.5919203 0.00954575539,16.1684606 0.548494443,16.1684606 L14.9461237,16.1684606 C15.4850724,16.1684606 15.793043,16.437935 15.793043,17.0923727 Z M32,0.923912036 L32,15.2830449 C32,15.8219936 31.5765403,16.0144753 31.191577,15.6295119 L16.3704881,0.808423031 C15.9855247,0.423459683 16.1780064,0 16.7169551,0 L31.1145843,0 C31.6920293,0 32,0.269474344 32,0.923912036 Z M32,17.0923727 L32,31.4515056 C32,31.9904542 31.5765403,32.1829359 31.191577,31.7979726 L16.3704881,16.9768837 C15.9855247,16.5919203 16.1780064,16.1684606 16.7169551,16.1684606 L31.1145843,16.1684606 C31.6920293,16.1684606 32,16.437935 32,17.0923727 Z"></path>
  </g>
</svg>
