<svg xmlns="http://www.w3.org/2000/svg" width="24" height="24" viewBox="0 0 24 24">
    <path fill="#B0BEC5" fill-rule="evenodd" d="M0 12C0 5.373 5.292 0 11.82 0c6.529 0 11.82 5.373 11.82 12S18.35 24 11.82 24C5.292 24 0 18.627 0 12zm9.657-.343v1.303h2.13c-.086.56-.644 1.64-2.13 1.64-1.282 0-2.328-1.075-2.328-2.4s1.046-2.4 2.328-2.4a2.1 2.1 0 0 1 1.497.587l1.02-.994A3.577 3.577 0 0 0 9.656 8.4c-2.076 0-3.755 1.7-3.755 3.8 0 2.1 1.679 3.8 3.755 3.8 2.168 0 3.606-1.542 3.606-3.713 0-.25-.027-.44-.06-.63H9.658zm8.048 0h-1.073v-1.086h-1.073v1.086h-1.073v1.086h1.073v1.086h1.073v-1.086h1.073v-1.086z"/>
</svg>
