<?xml version="1.0" encoding="UTF-8"?>
<svg width="24px" height="24px" viewBox="0 0 24 24" version="1.1" xmlns="http://www.w3.org/2000/svg" xmlns:xlink="http://www.w3.org/1999/xlink">
    <!-- Generator: Sketch 50.2 (55047) - http://www.bohemiancoding.com/sketch -->
    <title>-g-instagram</title>
    <desc>Created with Sketch.</desc>
    <defs></defs>
    <g id="Page-1" stroke="none" stroke-width="1" fill="none" fill-rule="evenodd">
        <g id="01_Home" transform="translate(-399.000000, -127.000000)" fill="#B0BEC5">
            <g id="Group-9" transform="translate(0.000000, 115.000000)">
                <g id="-g-instagram" transform="translate(399.000000, 12.000000)">
                    <path d="M0,12 C0,5.37258267 5.37258267,0 12,0 C18.6274173,0 24,5.37258267 24,12 C24,18.6274173 18.6274173,24 12,24 C5.37258267,24 0,18.6274173 0,12 Z M12.0006,5.6 C10.2624486,5.6 10.044313,5.60760008 9.36163918,5.63866707 C8.68029875,5.66986739 8.21522724,5.77773518 7.80828967,5.9360035 C7.38735195,6.09947187 7.03028157,6.31814081 6.67454453,6.67401119 C6.31854082,7.02974823 6.09987187,7.38681861 5.93587017,7.807623 C5.77720185,8.2146939 5.66920072,8.67989875 5.63853373,9.36097251 C5.60800008,10.0436463 5.6,10.2619152 5.6,12.0000667 C5.6,13.7382181 5.60773341,13.955687 5.63866707,14.6383608 C5.67000073,15.3197012 5.77786852,15.7847728 5.9360035,16.1917103 C6.0996052,16.612648 6.31827415,16.9697184 6.67414452,17.3254555 C7.02974823,17.6814592 7.38681861,17.9006615 7.80748966,18.0641298 C8.2146939,18.2223981 8.67989875,18.3302659 9.36110584,18.3614663 C10.0437796,18.3925333 10.2617819,18.4001333 11.9998,18.4001333 C13.7380848,18.4001333 13.9555537,18.3925333 14.6382275,18.3614663 C15.3195679,18.3302659 15.7851728,18.2223981 16.192377,18.0641298 C16.6131814,17.9006615 16.9697184,17.6814592 17.3253221,17.3254555 C17.6813258,16.9697184 17.8999948,16.612648 18.0639965,16.1918437 C18.2213315,15.7847728 18.3293326,15.3195679 18.3613329,14.6384942 C18.3919999,13.9558204 18.4,13.7382181 18.4,12.0000667 C18.4,10.2619152 18.3919999,10.0437796 18.3613329,9.36110584 C18.3293326,8.67976541 18.2213315,8.2146939 18.0639965,7.80775633 C17.8999948,7.38681861 17.6813258,7.02974823 17.3253221,6.67401119 C16.9693184,6.31800748 16.6133147,6.09933853 16.191977,5.9360035 C15.7839727,5.77773518 15.3186346,5.66986739 14.6372941,5.63866707 C13.9546204,5.60760008 13.7372848,5.6 11.9986,5.6 L12.0006,5.6 Z" id="Combined-Shape"></path>
                    <path d="M11.4264607,6.75334535 C11.5968625,6.75307868 11.7869978,6.75334535 12.0006,6.75334535 C13.7094178,6.75334535 13.9119532,6.75947874 14.5867603,6.79014573 C15.2107668,6.81867936 15.549437,6.92294711 15.7750393,7.01054803 C16.0737091,7.12654923 16.2866447,7.26521735 16.5105137,7.48921968 C16.734516,7.71322201 16.8731841,7.92655757 16.989452,8.22522735 C17.0770529,8.45056303 17.181454,8.78923322 17.2098543,9.41323972 C17.2405213,10.0879134 17.247188,10.2905822 17.247188,11.9986 C17.247188,13.7066178 17.2405213,13.9092866 17.2098543,14.5839602 C17.1813206,15.2079667 17.0770529,15.5466369 16.989452,15.7719726 C16.8734508,16.0706424 16.734516,16.2833113 16.5105137,16.5071803 C16.2865113,16.7311826 16.0738424,16.8698507 15.7750393,16.9858519 C15.5497036,17.0738529 15.2107668,17.1778539 14.5867603,17.2063876 C13.9120866,17.2370546 13.7094178,17.2437213 12.0006,17.2437213 C10.2916489,17.2437213 10.0891134,17.2370546 9.41443973,17.2063876 C8.79043323,17.1775873 8.45176304,17.0733195 8.22602735,16.9857186 C7.92735758,16.8697174 7.71402202,16.7310493 7.49001969,16.5070469 C7.26601735,16.2830446 7.12734924,16.0702424 7.01108137,15.7714393 C6.92348045,15.5461036 6.81907937,15.2074334 6.79067907,14.5834269 C6.76001208,13.9087532 6.75387869,13.7060844 6.75387869,11.997 C6.75387869,10.2879155 6.76001208,10.0863134 6.79067907,9.4116397 C6.8192127,8.7876332 6.92348045,8.44896301 7.01108137,8.22336066 C7.12708257,7.92469088 7.26601735,7.71135533 7.49001969,7.48735299 C7.71402202,7.26335066 7.92735758,7.12468255 8.22602735,7.00841467 C8.4516297,6.92041375 8.79043323,6.81641267 9.41443973,6.78774571 C10.0048459,6.76107876 10.2336483,6.75307868 11.4264607,6.75174533 L11.4264607,6.75334535 Z M15.4169023,7.81602308 C14.9928978,7.81602308 14.6488943,8.15962666 14.6488943,8.58376441 C14.6488943,9.00776883 14.9928978,9.35177241 15.4169023,9.35177241 C15.8409067,9.35177241 16.1849103,9.00776883 16.1849103,8.58376441 C16.1849103,8.15976 15.8409067,7.81575641 15.4169023,7.81575641 L15.4169023,7.81602308 Z M12.0006,8.71336576 C10.1855144,8.71336576 8.7138991,10.1849811 8.7138991,12.0000667 C8.7138991,13.8151522 10.1855144,15.2861009 12.0006,15.2861009 C13.8156856,15.2861009 15.2867676,13.8151522 15.2867676,12.0000667 C15.2867676,10.1849811 13.8155522,8.71336576 12.0004667,8.71336576 L12.0006,8.71336576 Z" id="Combined-Shape"></path>
                    <path d="M12.0006,9.86671111 C13.1787456,9.86671111 14.1339556,10.8217877 14.1339556,12.0000667 C14.1339556,13.1782123 13.1787456,14.1334222 12.0006,14.1334222 C10.8223211,14.1334222 9.86724445,13.1782123 9.86724445,12.0000667 C9.86724445,10.8217877 10.8223211,9.86671111 12.0006,9.86671111 L12.0006,9.86671111 Z" id="Shape"></path>
                </g>
            </g>
        </g>
    </g>
</svg>