<svg xmlns="http://www.w3.org/2000/svg" width="24" height="24" viewBox="0 0 24 24">
    <g fill="#B0BEC5" fill-rule="evenodd">
        <path d="M0 12C0 5.373 5.292 0 11.82 0c6.529 0 11.82 5.373 11.82 12S18.35 24 11.82 24C5.292 24 0 18.627 0 12zm17.972-2.415s-.123-.902-.5-1.299c-.479-.52-1.015-.523-1.261-.554-1.762-.132-4.405-.132-4.405-.132h-.005s-2.643 0-4.405.132c-.246.03-.783.033-1.262.554-.377.397-.5 1.299-.5 1.299s-.126 1.058-.126 2.117v.992c0 1.059.126 2.117.126 2.117s.123.901.5 1.298c.48.521 1.108.505 1.389.56 1.007.1 4.28.131 4.28.131s2.646-.004 4.408-.137c.246-.03.782-.033 1.261-.554.377-.397.5-1.298.5-1.298s.126-1.058.126-2.117v-.992c0-1.059-.126-2.117-.126-2.117z"/>
        <path d="M10.503 13.897V10.22l3.402 1.844z"/>
    </g>
</svg>
